{
  "accessors": [
    {
      "bufferView": 2,
      "componentType": 5126,
      "count": 665,
      "max": [
        14.521262168884277,
        14.521262168884277,
        0.46584606170654297
      ],
      "min": [
        -14.521262168884277,
        -14.521262168884277,
        -5.008292873753817e-07
      ],
      "type": "VEC3"
    },
    {
      "bufferView": 2,
      "byteOffset": 7980,
      "componentType": 5126,
      "count": 665,
      "max": [
        0.3455776870250702,
        0.3455776572227478,
        1.0
      ],
      "min": [
        -0.3455777168273926,
        -0.3455776572227478,
        0.9383607506752014
      ],
      "type": "VEC3"
    },
    {
      "bufferView": 1,
      "componentType": 5126,
      "count": 665,
      "max": [
        1.3068565130233765,
        475.9279479980469
      ],
      "min": [
        0.06423331797122955,
        -472.720947265625
      ],
      "type": "VEC2"
    },
    {
      "bufferView": 0,
      "componentType": 5125,
      "count": 3168,
      "type": "SCALAR"
    },
    {
      "bufferView": 2,
      "byteOffset": 15960,
      "componentType": 5126,
      "count": 2143,
      "max": [
        5.0,
        5.0,
        5.0
      ],
      "min": [
        -5.0,
        -5.0,
        -5.0
      ],
      "type": "VEC3"
    },
    {
      "bufferView": 2,
      "byteOffset": 41676,
      "componentType": 5126,
      "count": 2143,
      "max": [
        1.0,
        1.0,
        1.0
      ],
      "min": [
        -1.0,
        -1.0,
        -1.0
      ],
      "type": "VEC3"
    },
    {
      "bufferView": 1,
      "byteOffset": 5320,
      "componentType": 5126,
      "count": 2143,
      "max": [
        0.9999994039535522,
        1.0
      ],
      "min": [
        0.0,
        -2.384185791015625e-07
      ],
      "type": "VEC2"
    },
    {
      "bufferView": 0,
      "byteOffset": 12672,
      "componentType": 5125,
      "count": 11904,
      "type": "SCALAR"
    },
    {
      "bufferView": 2,
      "byteOffset": 67392,
      "componentType": 5126,
      "count": 2212,
      "max": [
        5.341330051422119,
        5.3413310050964355,
        5.0
      ],
      "min": [
        -5.341330051422119,
        -5.341330051422119,
        -5.0
      ],
      "type": "VEC3"
    },
    {
      "bufferView": 2,
      "byteOffset": 93936,
      "componentType": 5126,
      "count": 2212,
      "max": [
        0.9570691585540771,
        0.9570691585540771,
        1.0
      ],
      "min": [
        -0.9570691585540771,
        -0.9570692777633667,
        -1.0
      ],
      "type": "VEC3"
    },
    {
      "bufferView": 1,
      "byteOffset": 22464,
      "componentType": 5126,
      "count": 2212,
      "max": [
        0.9984140396118164,
        0.8171966671943665
      ],
      "min": [
        -0.0034827415365725756,
        0.0006936606951057911
      ],
      "type": "VEC2"
    },
    {
      "bufferView": 0,
      "byteOffset": 60288,
      "componentType": 5125,
      "count": 11904,
      "type": "SCALAR"
    },
    {
      "bufferView": 2,
      "byteOffset": 120480,
      "componentType": 5126,
      "count": 89,
      "max": [
        0.00800000037997961,
        0.00800000037997961,
        0.00800000037997961
      ],
      "min": [
        -0.00800000037997961,
        -0.00800000037997961,
        -0.00800000037997961
      ],
      "type": "VEC3"
    },
    {
      "bufferView": 2,
      "byteOffset": 121548,
      "componentType": 5126,
      "count": 89,
      "max": [
        1.0,
        1.0,
        1.0
      ],
      "min": [
        -1.0,
        -1.0,
        -1.0
      ],
      "type": "VEC3"
    },
    {
      "bufferView": 1,
      "byteOffset": 40160,
      "componentType": 5126,
      "count": 89,
      "max": [
        0.9999998211860657,
        1.0
      ],
      "min": [
        0.0,
        5.960464477539063e-08
      ],
      "type": "VEC2"
    },
    {
      "bufferView": 0,
      "byteOffset": 107904,
      "componentType": 5125,
      "count": 360,
      "type": "SCALAR"
    },
    {
      "bufferView": 2,
      "byteOffset": 122616,
      "componentType": 5126,
      "count": 665,
      "max": [
        14.521262168884277,
        14.521262168884277,
        0.46584606170654297
      ],
      "min": [
        -14.521262168884277,
        -14.521262168884277,
        -5.008292873753817e-07
      ],
      "type": "VEC3"
    },
    {
      "bufferView": 2,
      "byteOffset": 130596,
      "componentType": 5126,
      "count": 665,
      "max": [
        0.3455776870250702,
        0.3455776572227478,
        1.0
      ],
      "min": [
        -0.3455777168273926,
        -0.3455776572227478,
        0.9383607506752014
      ],
      "type": "VEC3"
    },
    {
      "bufferView": 1,
      "byteOffset": 40872,
      "componentType": 5126,
      "count": 665,
      "max": [
        1.3068565130233765,
        475.9279479980469
      ],
      "min": [
        0.06423331797122955,
        -472.720947265625
      ],
      "type": "VEC2"
    },
    {
      "bufferView": 0,
      "byteOffset": 109344,
      "componentType": 5125,
      "count": 3168,
      "type": "SCALAR"
    },
    {
      "bufferView": 2,
      "byteOffset": 138576,
      "componentType": 5126,
      "count": 49,
      "max": [
        2.0,
        2.0,
        49.0
      ],
      "min": [
        -2.0,
        -2.0,
        0.0
      ],
      "type": "VEC3"
    },
    {
      "bufferView": 2,
      "byteOffset": 139164,
      "componentType": 5126,
      "count": 49,
      "max": [
        0.9991680383682251,
        0.9991680383682251,
        0.040782373398542404
      ],
      "min": [
        -0.9991680383682251,
        -0.9991680383682251,
        0.04043404012918472
      ],
      "type": "VEC3"
    },
    {
      "bufferView": 1,
      "byteOffset": 46192,
      "componentType": 5126,
      "count": 49,
      "max": [
        1.0,
        1.0
      ],
      "min": [
        0.0,
        0.020896458998322487
      ],
      "type": "VEC2"
    },
    {
      "bufferView": 0,
      "byteOffset": 122016,
      "componentType": 5125,
      "count": 72,
      "type": "SCALAR"
    },
    {
      "bufferView": 2,
      "byteOffset": 139752,
      "componentType": 5126,
      "count": 49,
      "max": [
        2.0,
        2.0,
        49.0
      ],
      "min": [
        -2.0,
        -2.0,
        0.0
      ],
      "type": "VEC3"
    },
    {
      "bufferView": 2,
      "byteOffset": 140340,
      "componentType": 5126,
      "count": 49,
      "max": [
        0.9991680383682251,
        0.9991680383682251,
        0.040782373398542404
      ],
      "min": [
        -0.9991680383682251,
        -0.9991680383682251,
        0.04043404012918472
      ],
      "type": "VEC3"
    },
    {
      "bufferView": 1,
      "byteOffset": 46584,
      "componentType": 5126,
      "count": 49,
      "max": [
        1.0,
        1.0
      ],
      "min": [
        0.0,
        0.020896458998322487
      ],
      "type": "VEC2"
    },
    {
      "bufferView": 0,
      "byteOffset": 122304,
      "componentType": 5125,
      "count": 72,
      "type": "SCALAR"
    },
    {
      "bufferView": 3,
      "componentType": 5126,
      "count": 201,
      "max": [
        6.666666507720947
      ],
      "min": [
        0.0
      ],
      "type": "SCALAR"
    },
    {
      "bufferView": 5,
      "componentType": 5126,
      "count": 201,
      "max": [
        0.49245336651802063,
        0.7071067094802856,
        0.7071067094802856,
        0.7071067690849304
      ],
      "min": [
        -0.7071067690849304,
        -0.49710869789123535,
        -0.49710869789123535,
        -0.49245336651802063
      ],
      "type": "VEC4"
    },
    {
      "bufferView": 3,
      "byteOffset": 804,
      "componentType": 5126,
      "count": 17,
      "max": [
        6.666666507720947
      ],
      "min": [
        0.0
      ],
      "type": "SCALAR"
    },
    {
      "bufferView": 4,
      "componentType": 5126,
      "count": 17,
      "max": [
        1.0,
        1.0,
        1.0
      ],
      "min": [
        0.9999999403953552,
        0.9999999403953552,
        1.0
      ],
      "type": "VEC3"
    },
    {
      "bufferView": 3,
      "byteOffset": 872,
      "componentType": 5126,
      "count": 201,
      "max": [
        6.666666507720947
      ],
      "min": [
        0.0
      ],
      "type": "SCALAR"
    },
    {
      "bufferView": 5,
      "byteOffset": 3216,
      "componentType": 5126,
      "count": 201,
      "max": [
        0.49208471179008484,
        0.7071067690849304,
        0.7071067690849304,
        0.7071067690849304
      ],
      "min": [
        -0.7071067690849304,
        -0.5,
        -0.5,
        -0.49208471179008484
      ],
      "type": "VEC4"
    },
    {
      "bufferView": 3,
      "byteOffset": 1676,
      "componentType": 5126,
      "count": 201,
      "max": [
        6.666666507720947
      ],
      "min": [
        0.0
      ],
      "type": "SCALAR"
    },
    {
      "bufferView": 5,
      "byteOffset": 6432,
      "componentType": 5126,
      "count": 201,
      "max": [
        0.4848957061767578,
        0.707105278968811,
        0.707105278968811,
        0.7071067690849304
      ],
      "min": [
        -0.7071067690849304,
        -0.4992940425872803,
        -0.4992940425872803,
        -0.4848957061767578
      ],
      "type": "VEC4"
    },
    {
      "bufferView": 3,
      "byteOffset": 2480,
      "componentType": 5126,
      "count": 201,
      "max": [
        6.666666507720947
      ],
      "min": [
        0.0
      ],
      "type": "SCALAR"
    },
    {
      "bufferView": 5,
      "byteOffset": 9648,
      "componentType": 5126,
      "count": 201,
      "max": [
        0.7071067690849304,
        0.5752395391464233,
        0.7071067690849304,
        0.7071067690849304
      ],
      "min": [
        -0.49231454730033875,
        -0.7071067690849304,
        -0.5752395391464233,
        -0.49231454730033875
      ],
      "type": "VEC4"
    }
  ],
  "animations": [
    {
      "channels": [
        {
          "sampler": 0,
          "target": {
            "node": 4,
            "path": "rotation"
          }
        },
        {
          "sampler": 1,
          "target": {
            "node": 6,
            "path": "scale"
          }
        },
        {
          "sampler": 2,
          "target": {
            "node": 6,
            "path": "rotation"
          }
        },
        {
          "sampler": 3,
          "target": {
            "node": 8,
            "path": "rotation"
          }
        },
        {
          "sampler": 4,
          "target": {
            "node": 12,
            "path": "rotation"
          }
        }
      ],
      "name": "Take 001",
      "samplers": [
        {
          "input": 28,
          "interpolation": "LINEAR",
          "output": 29
        },
        {
          "input": 30,
          "interpolation": "LINEAR",
          "output": 31
        },
        {
          "input": 32,
          "interpolation": "LINEAR",
          "output": 33
        },
        {
          "input": 34,
          "interpolation": "LINEAR",
          "output": 35
        },
        {
          "input": 36,
          "interpolation": "LINEAR",
          "output": 37
        }
      ]
    }
  ],
  "asset": {
    "extras": {
      "author": "SebastianSosnowski (https://sketchfab.com/SebastianSosnowski)",
      "license": "CC-BY-4.0 (http://creativecommons.org/licenses/by/4.0/)",
      "source": "https://sketchfab.com/3d-models/black-hole-cfd16738ad2c402b9dc8e38a9c05c8d4",
      "title": "Black Hole"
    },
    "generator": "Sketchfab-12.68.0",
    "version": "2.0"
  },
  "bufferViews": [
    {
      "buffer": 0,
      "byteLength": 122592,
      "name": "floatBufferViews",
      "target": 34963
    },
    {
      "buffer": 0,
      "byteLength": 46976,
      "byteOffset": 122592,
      "byteStride": 8,
      "name": "floatBufferViews",
      "target": 34962
    },
    {
      "buffer": 0,
      "byteLength": 140928,
      "byteOffset": 169568,
      "byteStride": 12,
      "name": "floatBufferViews",
      "target": 34962
    },
    {
      "buffer": 0,
      "byteLength": 3284,
      "byteOffset": 310496,
      "name": "floatBufferViews"
    },
    {
      "buffer": 0,
      "byteLength": 204,
      "byteOffset": 313780,
      "byteStride": 12,
      "name": "floatBufferViews"
    },
    {
      "buffer": 0,
      "byteLength": 12864,
      "byteOffset": 313984,
      "byteStride": 16,
      "name": "floatBufferViews"
    }
  ],
  "buffers": [
    {
      "byteLength": 326848,
      "uri": "scene.bin"
    }
  ],
  "extensionsUsed": [
    "KHR_materials_transmission"
  ],
  "images": [
    {
      "uri": "textures/Material_63_baseColor.png"
    },
    {
      "uri": "textures/Material_64_baseColor.png"
    },
    {
      "uri": "textures/Material_64_emissive.png"
    }
  ],
  "materials": [
    {
      "emissiveFactor": [
        1.0,
        1.0,
        1.0
      ],
      "emissiveTexture": {
        "index": 0
      },
      "name": "Material_63",
      "pbrMetallicRoughness": {
        "baseColorTexture": {
          "index": 0
        },
        "roughnessFactor": 0.5504954268
      }
    },
    {
      "name": "Material_50",
      "pbrMetallicRoughness": {
        "baseColorFactor": [
          0.0,
          0.0,
          0.0,
          1.0
        ]
      }
    },
    {
      "alphaMode": "BLEND",
      "extensions": {
        "KHR_materials_transmission": {
          "transmissionFactor": 1.0
        }
      },
      "name": "Material_62",
      "pbrMetallicRoughness": {
        "baseColorFactor": [
          0.0,
          0.0,
          0.0,
          0.25
        ],
        "metallicFactor": 0.0
      }
    },
    {
      "alphaMode": "BLEND",
      "emissiveFactor": [
        1.0,
        1.0,
        1.0
      ],
      "emissiveTexture": {
        "index": 2
      },
      "name": "Material_64",
      "pbrMetallicRoughness": {
        "baseColorFactor": [
          0.0,
          0.0,
          0.0,
          0.6541539634
        ],
        "baseColorTexture": {
          "index": 1
        },
        "metallicFactor": 0.0
      }
    }
  ],
  "meshes": [
    {
      "name": "Saturn Rings_Material #63_0",
      "primitives": [
        {
          "attributes": {
            "NORMAL": 1,
            "POSITION": 0,
            "TEXCOORD_0": 2
          },
          "indices": 3,
          "material": 0,
          "mode": 4
        }
      ]
    },
    {
      "name": "Saturn_Material #50_0",
      "primitives": [
        {
          "attributes": {
            "NORMAL": 5,
            "POSITION": 4,
            "TEXCOORD_0": 6
          },
          "indices": 7,
          "material": 1,
          "mode": 4
        }
      ]
    },
    {
      "name": "Saturn Clouds_Material #62_0",
      "primitives": [
        {
          "attributes": {
            "NORMAL": 9,
            "POSITION": 8,
            "TEXCOORD_0": 10
          },
          "indices": 11,
          "material": 2,
          "mode": 4
        }
      ]
    },
    {
      "name": "Sphere Tethys_Material #64_0",
      "primitives": [
        {
          "attributes": {
            "NORMAL": 13,
            "POSITION": 12,
            "TEXCOORD_0": 14
          },
          "indices": 15,
          "material": 3,
          "mode": 4
        }
      ]
    },
    {
      "name": "Saturn Rings Down_Material #63_0",
      "primitives": [
        {
          "attributes": {
            "NORMAL": 17,
            "POSITION": 16,
            "TEXCOORD_0": 18
          },
          "indices": 19,
          "material": 0,
          "mode": 4
        }
      ]
    },
    {
      "name": "ConeDown_Material #64_0",
      "primitives": [
        {
          "attributes": {
            "NORMAL": 21,
            "POSITION": 20,
            "TEXCOORD_0": 22
          },
          "indices": 23,
          "material": 3,
          "mode": 4
        }
      ]
    },
    {
      "name": "ConeUP_Material #64_0",
      "primitives": [
        {
          "attributes": {
            "NORMAL": 25,
            "POSITION": 24,
            "TEXCOORD_0": 26
          },
          "indices": 27,
          "material": 3,
          "mode": 4
        }
      ]
    }
  ],
  "nodes": [
    {
      "children": [
        1
      ],
      "matrix": [
        0.09193730405931078,
        -0.022165091727574526,
        -4.921639035776365e-18,
        0.0,
        -0.009038730095597969,
        -0.03749122587867635,
        -0.08635084540382644,
        0.0,
        0.020238394485751487,
        0.08394567138171995,
        -0.03856540718050081,
        0.0,
        -0.06282241642475128,
        -0.2599522471427924,
        2.9744343757629395,
        1.0
      ],
      "name": "Sketchfab_model"
    },
    {
      "children": [
        2
      ],
      "matrix": [
        1.0,
        0.0,
        0.0,
        0.0,
        0.0,
        0.0,
        1.0,
        0.0,
        0.0,
        -1.0,
        0.0,
        0.0,
        0.0,
        0.0,
        0.0,
        1.0
      ],
      "name": "b51815ad932540ac9ac90768f02951f9.fbx"
    },
    {
      "children": [
        3
      ],
      "name": "Object_2"
    },
    {
      "children": [
        4,
        6,
        8,
        10,
        12
      ],
      "name": "RootNode"
    },
    {
      "children": [
        5
      ],
      "name": "Saturn Rings",
      "rotation": [
        -0.7071068286895752,
        -0.0,
        0.0,
        0.7071068286895752
      ]
    },
    {
      "mesh": 0,
      "name": "Saturn Rings_Material #63_0"
    },
    {
      "children": [
        7
      ],
      "name": "Saturn",
      "rotation": [
        -0.7071068286895752,
        -0.0,
        0.0,
        0.7071068286895752
      ]
    },
    {
      "mesh": 1,
      "name": "Saturn_Material #50_0"
    },
    {
      "children": [
        9
      ],
      "name": "Saturn Clouds",
      "rotation": [
        -0.7070733308792114,
        -0.006879116408526897,
        -0.006879116408526897,
        0.7070733308792114
      ],
      "scale": [
        1.0099999904632568,
        1.0099999904632568,
        1.0099999904632568
      ]
    },
    {
      "mesh": 2,
      "name": "Saturn Clouds_Material #62_0"
    },
    {
      "children": [
        11
      ],
      "name": "Sphere Tethys",
      "rotation": [
        -0.7071068286895752,
        -0.0,
        0.0,
        0.7071068286895752
      ],
      "translation": [
        3.9636712074279785,
        -7.152557373046875e-07,
        21.659725189208984
      ]
    },
    {
      "mesh": 3,
      "name": "Sphere Tethys_Material #64_0"
    },
    {
      "children": [
        13,
        14,
        16
      ],
      "name": "Saturn Rings Down",
      "rotation": [
        0.7071068286895752,
        0.0,
        0.0,
        0.7071067094802856
      ],
      "translation": [
        0.0,
        -1.430511474609375e-06,
        0.0
      ]
    },
    {
      "mesh": 4,
      "name": "Saturn Rings Down_Material #63_0"
    },
    {
      "children": [
        15
      ],
      "name": "ConeDown",
      "rotation": [
        1.5099581673894136e-07,
        0.0,
        0.0,
        1.0
      ],
      "translation": [
        0.0,
        1.3351441339182202e-05,
        -54.05000686645508
      ]
    },
    {
      "mesh": 5,
      "name": "ConeDown_Material #64_0"
    },
    {
      "children": [
        17
      ],
      "name": "ConeUP",
      "rotation": [
        1.0,
        0.0,
        0.0,
        -7.549790126404332e-08
      ],
      "translation": [
        1.9073486328125e-06,
        -5.900859832763672e-06,
        54.05000305175781
      ]
    },
    {
      "mesh": 6,
      "name": "ConeUP_Material #64_0"
    }
  ],
  "samplers": [
    {
      "magFilter": 9729,
      "minFilter": 9987,
      "wrapS": 10497,
      "wrapT": 10497
    }
  ],
  "scene": 0,
  "scenes": [
    {
      "name": "Sketchfab_Scene",
      "nodes": [
        0
      ]
    }
  ],
  "textures": [
    {
      "sampler": 0,
      "source": 0
    },
    {
      "sampler": 0,
      "source": 1
    },
    {
      "sampler": 0,
      "source": 2
    }
  ]
}
